<svg width="25" height="25" viewBox="0 0 25 25" fill="none" xmlns="http://www.w3.org/2000/svg">
<rect width="25" height="25" fill="white"/>
<path d="M12.5 1C19.4043 1 25 6.35241 25 12.9565C25 19.5606 19.4043 24.913 12.5 24.913C5.5957 24.913 0 19.5606 0 12.9565C0 6.35241 5.5957 1 12.5 1ZM12.5 22.6712C12.8613 22.6712 13.7744 22.3349 14.8242 20.4107C15.2539 19.584 15.5811 18.5798 15.8984 17.4402H9.10156C9.375 18.5798 9.74609 19.584 10.1758 20.4107C11.1816 22.3349 12.1387 22.6712 12.5 22.6712ZM8.71582 15.1984H16.2842C16.3623 14.4838 16.4062 13.7318 16.4062 12.9565C16.4062 12.1812 16.3623 11.4293 16.2842 10.7147H8.71582C8.6377 11.4293 8.59375 12.1812 8.59375 12.9565C8.59375 13.7318 8.6377 14.4838 8.71582 15.1984ZM15.8984 8.47283C15.5811 7.33322 15.2539 6.32906 14.8242 5.50471C13.7744 3.57906 12.8613 3.24185 12.5 3.24185C12.1387 3.24185 11.1816 3.57906 10.1758 5.50471C9.74609 6.32906 9.375 7.33322 9.10156 8.47283H15.8984ZM18.6426 10.7147C18.7109 11.4386 18.75 12.1906 18.75 12.9565C18.75 13.7225 18.7109 14.4744 18.6426 15.1984H22.3828C22.5635 14.4791 22.6562 13.7272 22.6562 12.9565C22.6562 12.1859 22.5635 11.4339 22.3828 10.7147H18.6426ZM16.7041 4.11103C17.3926 5.30902 17.9395 6.79611 18.2959 8.47283H21.5137C20.4688 6.55324 18.7695 5.01104 16.7041 4.11103ZM8.2959 4.11103C6.23047 5.01104 4.5332 6.55324 3.48779 8.47283H6.7041C7.06055 6.79611 7.60742 5.30902 8.2959 4.11103ZM2.34375 12.9565C2.34375 13.7272 2.43799 14.4791 2.61572 15.1984H6.35742C6.28906 14.4744 6.25 13.7225 6.25 12.9565C6.25 12.1906 6.28906 11.4386 6.35742 10.7147H2.61572C2.43799 11.4339 2.34375 12.1859 2.34375 12.9565ZM21.5137 17.4402H18.2959C17.9395 19.1169 17.3926 20.6022 16.7041 21.8025C18.7695 20.9011 20.4688 19.3598 21.5137 17.4402ZM6.7041 17.4402H3.48779C4.5332 19.3598 6.23047 20.9011 8.2959 21.8025C7.60742 20.6022 7.06055 19.1169 6.7041 17.4402Z" fill="#CB152F"/>
</svg>
