<svg width="25" height="25" viewBox="0 0 25 25" fill="none" xmlns="http://www.w3.org/2000/svg">
<g clip-path="url(#clip0_206_521)">
<rect width="25" height="25" fill="white"/>
<path d="M16.1513 9.39932C16.1513 11.5631 14.4204 13.3157 12.2833 13.3157C10.1462 13.3157 8.41525 11.5631 8.41525 9.39932C8.41525 7.23552 10.1462 5.48294 12.2833 5.48294C14.4204 5.48294 16.1513 7.23552 16.1513 9.39932ZM12.2833 7.83277C11.4275 7.83277 10.7361 8.53282 10.7361 9.39932C10.7361 10.2658 11.4275 10.9659 12.2833 10.9659C13.1391 10.9659 13.8305 10.2658 13.8305 9.39932C13.8305 8.53282 13.1391 7.83277 12.2833 7.83277ZM21.5666 9.39932C21.5666 13.678 15.9096 21.2953 13.4292 24.4382C12.8345 25.1873 11.7321 25.1873 11.1374 24.4382C8.61349 21.2953 3 13.678 3 9.39932C3 4.20816 7.1562 0 12.2833 0C17.4084 0 21.5666 4.20816 21.5666 9.39932ZM12.2833 2.34983C8.43942 2.34983 5.32082 5.50742 5.32082 9.39932C5.32082 10.0064 5.53791 10.9463 6.06058 12.1995C6.5673 13.4136 7.28675 14.755 8.11548 16.111C9.48863 18.3727 11.0842 20.517 12.2833 22.1129C13.4824 20.517 15.0779 18.3727 16.4511 16.111C17.2779 14.755 17.9983 13.4136 18.506 12.1995C19.0282 10.9463 19.2457 10.0064 19.2457 9.39932C19.2457 5.50742 16.1271 2.34983 12.2833 2.34983Z" fill="#CB152F"/>
</g>
<defs>
<clipPath id="clip0_206_521">
<rect width="25" height="25" fill="white"/>
</clipPath>
</defs>
</svg>
