<svg width="350" height="50" viewBox="0 0 350 50" fill="none" xmlns="http://www.w3.org/2000/svg">
<rect width="350" height="50" fill="white"/>
<path d="M73.1722 12.3211C75.4103 12.4112 66.7236 6.90461 48.0583 20.5811C37.5747 28.2853 36.2882 32.8508 42.0616 22.0428C47.2768 12.2761 48.9249 15.545 51.7106 15.565C52.0774 15.57 52.2475 15.3898 52.2316 15.1495C52.1624 13.4174 22.2746 8.30129 15.0286 12.9469C12.6841 14.4487 14.077 16.6764 16.246 17.6025C18.2024 18.4385 18.5107 18.4485 18.532 18.3133C18.6117 17.8678 15.002 17.3772 15.3954 15.4699C16.3098 11.0396 37.7821 12.1309 45.0653 13.4375C49.5097 14.2384 43.4173 12.3011 35.528 19.74C25.7886 28.9361 19.4039 39.0082 8.65444 38.5477C0.658837 38.2022 0.0155725 30.2827 4.33235 27.2691C7.81979 24.8362 12.2642 24.3105 16.3789 27.3192C17.086 27.8348 17.4581 27.1139 17.2401 26.8035C16.9052 26.318 10.9085 21.8726 3.86984 26.5182C-8.35217 34.5879 10.5949 52.179 29.8077 29.8222C35.0601 23.9501 39.3716 16.5312 44.103 15.8804C39.3929 18.9541 38.4147 23.004 35.7885 29.0562C33.4227 34.5078 32.301 33.867 31.2644 35.4389C30.5732 36.4952 31.0942 37.5615 32.1256 37.4864C32.9921 37.4213 34.1085 36.2549 34.4541 35.2387C35.1027 33.3915 49.5788 20.4859 60.2591 15.3448C52.6728 20.4159 37.8299 38.1772 45.0068 37.3012C46.405 37.131 48.2178 30.9735 55.6021 22.4133C60.1474 17.1369 63.7412 12.9269 73.1722 12.3211Z" fill="#001689"/>
<path d="M148.742 11.9106C137.228 12.5314 133.469 25.6572 125.362 25.7172C125.447 25.7172 125.915 22.4383 122.555 22.5484C112.943 22.8688 110.258 35.9545 104.692 35.8044C103.4 35.7693 103.236 34.9283 105.022 32.5755C107.223 29.672 117.775 15.3197 126.18 12.5364C126.483 12.4363 126.446 11.9607 126.122 11.9857C112.879 13.062 104.74 34.1974 96.4574 35.8694C94.6499 36.2349 92.8158 35.5591 92.332 34.5929C91.5027 32.9259 93.4059 30.7883 93.6291 30.4529C99.073 32.6556 108.339 23.2543 102.847 22.6585C100.663 22.4233 98.8178 23.2443 97.0262 24.3005C90.8328 27.9549 90.7265 33.837 87.1912 35.3138C84.8467 36.2949 83.6559 35.0935 84.65 33.5516C87.1912 29.6069 94.9635 23.9101 89.0678 22.6135C86.7872 22.1029 83.4433 24.1704 80.7001 25.9275C87.76 17.197 90.6255 14.5588 96.0853 12.4112C96.1384 12.3912 96.1171 12.256 96.0268 12.241C94.9369 12.0608 91.2209 12.5914 88.6638 14.5989C75.8517 24.6509 74.5917 35.0835 67.0374 35.3838C65.7349 35.4339 65.0172 35.3438 64.4324 34.2675C61.9551 29.697 72.7364 21.0566 73.4222 24.3956C73.5338 24.9363 73.0713 25.4018 72.1516 26.1077C69.0097 28.5256 74.2196 30.2477 75.0596 25.6021C75.8198 21.347 71.0033 21.9927 67.4414 24.7761C60.4506 30.2377 62.0348 34.7531 58.1539 35.6542C55.5012 36.2699 56.5112 29.3616 63.4861 23.3494C63.7519 23.1191 63.5127 22.6085 63.1884 22.7537C59.3714 24.4407 54.1934 29.0612 54.1934 34.9583C54.1934 37.216 57.1651 38.858 61.1842 35.3838C62.3378 37.6416 67.4042 38.7229 71.8911 35.3939C72.0984 36.5052 72.8746 37.5865 74.2515 37.4664C75.5327 29.2465 85.9897 22.1279 87.8026 24.2505C89.6367 26.4081 80.3226 32.2901 81.8059 35.8294C82.8532 38.3324 87.3294 37.2211 89.541 35.2787C90.6893 37.5314 96.5318 38.6227 101.029 35.2887C101.242 36.4301 104.336 39.4738 109.445 35.3838C109.982 36.3851 111.651 37.3512 113.023 37.4563C118.69 37.8969 124.059 29.0312 124.522 27.9349C124.522 27.9349 126.872 27.5995 127.876 26.9437C117.371 39.9293 132.794 40.6502 140.247 30.4679C142.193 27.8047 144.84 23.6347 141.746 22.6886C137.212 21.3019 127.595 31.2289 136.6 21.4371C139.54 18.2382 142.406 14.8692 148.822 12.3962C149.529 12.1209 149.152 11.8455 148.742 11.9106ZM94.7402 28.9711C101.311 21.8175 104.214 23.029 101.875 25.8324C99.2112 29.0212 93.8099 29.9924 94.7402 28.9711ZM121.034 29.2965C113.145 38.803 109.631 35.7393 114.426 29.8021C121.454 21.2969 126.643 22.5434 121.034 29.2965ZM134.612 26.1778C142.746 21.7074 141.124 25.492 137.376 29.7771C126.749 41.9317 122.007 33.1061 134.612 26.1778Z" fill="#001689"/>
<path d="M64.6714 19.675C65.4263 21.5172 69.0148 21.5122 68.2439 19.675C67.4943 17.8428 63.9059 17.8678 64.6714 19.675Z" fill="#001689"/>
<path d="M244.27 33.4866C244.228 33.4866 244.185 33.4866 244.137 33.4866C243.77 33.4866 243.191 33.4866 242.797 33.4866H230.995V11.9607C231.006 11.6003 231.075 11.3199 231.431 10.8344H225.823C226.195 11.34 226.253 11.6203 226.264 12.0008V12.3061C226.264 12.3562 226.264 12.4062 226.264 12.4663C226.264 12.8918 226.264 13.6077 226.264 13.9431V34.3677L226.259 34.3626C226.259 34.3626 226.259 35.454 226.259 36.0196C226.259 36.6955 226.322 36.9658 225.823 37.6516H244.764C245.105 37.6716 245.392 37.7517 245.865 38.0621V33.0711C245.333 33.4165 245.036 33.4766 244.637 33.4866H244.27Z" fill="#001689"/>
<path d="M247.21 14.8091V15.2447C247.938 14.7691 248.225 14.8342 248.943 14.8342C249.544 14.8342 250.703 14.8342 250.703 14.8342H250.697H256.279V36.5903C256.264 36.9207 256.178 37.1961 255.844 37.6566H261.495C260.99 36.9708 261.053 36.7005 261.053 36.0246C261.053 35.459 261.053 34.3677 261.053 34.3677V34.3727V14.8292H266.593H266.588C266.588 14.8292 267.747 14.8292 268.347 14.8292C269.065 14.8292 269.352 14.7691 270.08 15.2397V10.8344H247.215V14.8091H247.21Z" fill="#001689"/>
<path d="M214.685 10.8344H209.406C209.757 11.3099 209.922 11.5853 209.938 11.9357V29.0763C208.917 32.1149 205.499 33.7219 201.405 33.7219C197.445 33.7219 194.925 30.9636 194.925 26.4882V11.9757C194.935 11.6103 194.999 11.3299 195.361 10.8344H189.709C190.082 11.345 190.145 11.6253 190.151 12.0108V12.2511C190.151 12.3211 190.151 12.3912 190.151 12.4663C190.151 13.032 190.151 14.1233 190.151 14.1233V27.4894C190.151 33.5116 194.781 38.2774 201.411 38.2774C205.887 38.2774 208.284 36.5703 209.943 35.0435L209.948 37.6466H215.052C214.547 36.9608 214.611 36.6904 214.611 36.0146C214.611 35.449 214.611 34.3576 214.611 34.3576L214.605 34.3626V27.6896C214.611 27.6195 214.616 27.5545 214.616 27.4844V14.1183C214.616 14.1183 214.616 13.027 214.616 12.4613C214.616 11.7855 214.552 11.5152 215.052 10.8293H214.685V10.8344Z" fill="#001689"/>
<path d="M300.101 36.2599C299.74 35.8044 293.839 26.9888 293.839 26.9888C297.284 26.4882 300.096 23.5697 300.096 19.2244C300.096 12.997 295.763 10.8344 288.794 10.8344H278.06C278.374 11.2649 278.469 11.5302 278.491 11.8356V36.6504C278.464 36.9558 278.374 37.2211 278.06 37.6516H283.658C283.302 37.161 283.233 36.8857 283.222 36.5202V27.6195H289.373L293.105 33.4766C294.796 36.0347 295.412 36.6704 294.886 37.6566H301.42C300.931 37.3462 300.782 37.121 300.101 36.2599ZM287.906 23.7449H283.222V14.7441H287.906C292.478 14.7441 295.274 15.7503 295.274 19.2194C295.279 22.6936 292.435 23.7449 287.906 23.7449Z" fill="#001689"/>
<path d="M334.827 37.6516C334.316 37.3562 333.912 36.36 333.301 34.9333L324.215 12.7216C323.891 11.9056 323.625 11.5803 324.141 10.8394H317.299C317.815 11.5803 317.549 11.9107 317.224 12.7216L308.139 34.9333C307.528 36.36 307.124 37.3562 306.613 37.6516H313.259C312.807 36.9357 312.541 35.9496 313.567 33.4265L314.848 30.1025H326.565L327.862 33.4265C328.888 35.9446 328.628 36.9357 328.171 37.6516H334.827ZM316.523 26.4481L320.717 16.2509L324.912 26.4481H316.523Z" fill="#001689"/>
<path d="M337.442 33.3965C338.298 33.3965 339 34.0122 339 34.8633C339 35.7143 338.298 36.325 337.442 36.325C336.586 36.325 335.89 35.7143 335.89 34.8633C335.884 34.0122 336.581 33.3965 337.442 33.3965ZM337.447 36.1898C338.218 36.1898 338.851 35.6392 338.851 34.8633C338.851 34.0873 338.223 33.5317 337.447 33.5317C336.676 33.5317 336.044 34.0873 336.044 34.8633C336.044 35.6392 336.671 36.1898 337.447 36.1898ZM337.841 35.6942C337.793 35.6392 337.772 35.5891 337.75 35.504L337.692 35.2888C337.644 35.1236 337.495 35.0585 337.309 35.0585H337.166V35.6942H336.788V33.9672H337.506C337.915 33.9672 338.181 34.1374 338.181 34.5028C338.181 34.7882 337.968 34.9333 337.671 34.9484C337.862 34.9784 338.006 35.0285 338.069 35.2187L338.138 35.479C338.165 35.5591 338.197 35.6392 338.25 35.6942H337.841ZM337.171 34.7882H337.415C337.718 34.7882 337.814 34.693 337.814 34.5278C337.814 34.3626 337.687 34.2625 337.463 34.2625H337.171V34.7882Z" fill="#001689"/>
<path d="M158.912 4.71698V44.3396L166.754 39.3686L174.6 44.3396V4.71698H158.912Z" fill="#CE0E2D"/>
<path d="M158.907 4.71698V44.3396L166.743 39.3987L174.59 44.3396V4.71698H158.907Z" fill="#CE0E2D"/>
<path d="M177.71 6.19374C178.566 6.19374 179.268 6.80948 179.268 7.66051C179.268 8.51153 178.566 9.12226 177.71 9.12226C176.854 9.12226 176.158 8.51153 176.158 7.66051C176.152 6.80948 176.849 6.19374 177.71 6.19374ZM177.715 8.9871C178.486 8.9871 179.119 8.43644 179.119 7.66051C179.119 6.88457 178.492 6.32891 177.715 6.32891C176.945 6.32891 176.312 6.88457 176.312 7.66051C176.312 8.43644 176.939 8.9871 177.715 8.9871ZM178.109 8.49151C178.061 8.43644 178.04 8.38638 178.018 8.30128L177.96 8.08602C177.912 7.92082 177.763 7.85574 177.577 7.85574H177.434V8.49151H177.056V6.76443H177.774C178.183 6.76443 178.449 6.93463 178.449 7.30007C178.449 7.58542 178.236 7.73059 177.939 7.74561C178.13 7.77565 178.274 7.82571 178.337 8.01593L178.406 8.27625C178.433 8.35634 178.465 8.43644 178.518 8.49151H178.109ZM177.439 7.58542H177.683C177.987 7.58542 178.082 7.4903 178.082 7.3251C178.082 7.1599 177.955 7.05978 177.731 7.05978H177.439V7.58542Z" fill="#CE0E2D"/>
</svg>
