<svg width="25" height="25" viewBox="0 0 25 25" fill="none" xmlns="http://www.w3.org/2000/svg">
<rect width="25" height="25" fill="white"/>
<path d="M0 5.1087C0 4.4966 0.599888 4 1.33929 4H23.6607C24.4029 4 25 4.4966 25 5.1087C25 5.7231 24.4029 6.21739 23.6607 6.21739H1.33929C0.599888 6.21739 0 5.7231 0 5.1087ZM0 12.5C0 11.8856 0.599888 11.3913 1.33929 11.3913H23.6607C24.4029 11.3913 25 11.8856 25 12.5C25 13.1144 24.4029 13.6087 23.6607 13.6087H1.33929C0.599888 13.6087 0 13.1144 0 12.5ZM23.6607 21H1.33929C0.599888 21 0 20.5057 0 19.8913C0 19.2769 0.599888 18.7826 1.33929 18.7826H23.6607C24.4029 18.7826 25 19.2769 25 19.8913C25 20.5057 24.4029 21 23.6607 21Z" fill="#CB152F"/>
</svg>
