<svg width="25" height="25" viewBox="0 0 25 25" fill="none" xmlns="http://www.w3.org/2000/svg">
<rect width="25" height="25" fill="white"/>
<path d="M20.8177 15.2344C21.2774 14.9772 21.7749 14.6211 22.1472 14.1064C22.7422 13.2144 22.6831 12.3159 22.6487 11.7778C22.6474 11.7578 22.6458 11.7379 22.6443 11.7178C22.6533 11.7063 22.6622 11.6946 22.6711 11.683C23.0167 11.1865 23.5453 10.4248 23.5453 9.375C23.5453 8.3252 22.9677 7.56396 22.623 7.10889C22.6143 7.09735 22.6055 7.0859 22.5967 7.07456C22.5983 7.05462 22.5998 7.03478 22.601 7.01484C22.6355 6.47724 22.6946 5.57832 22.1001 4.68671C21.5023 3.78925 20.5693 3.38105 20.0125 3.13837C19.9948 3.13065 19.977 3.12312 19.9593 3.11549C19.9505 3.10004 19.9418 3.08459 19.9329 3.06914C19.6533 2.58584 19.1837 1.77568 18.1495 1.25615C17.5421 0.950977 16.8526 0.803662 16.0383 0.803662C15.8516 0.803662 15.6598 0.811675 15.468 0.820923C15.4448 0.821973 15.4215 0.823213 15.3983 0.824355C15.385 0.816631 15.3717 0.808906 15.3583 0.801274C14.8844 0.501465 14.0071 0 12.7979 0C11.5888 0 10.7115 0.501465 10.1884 0.800781C10.1772 0.808594 10.1603 0.815918 10.1491 0.823731C10.1266 0.822266 10.1041 0.821289 10.0816 0.819824C9.88474 0.811035 9.69353 0.802734 9.50794 0.802734C8.69415 0.802734 8.00521 0.949805 7.39783 1.25498C6.36358 1.77441 5.89398 2.58447 5.61447 3.06787C5.60557 3.08323 5.5969 3.09858 5.58822 3.11394C5.57053 3.12147 5.55274 3.129 5.53505 3.13673C4.9784 3.37939 4.04539 3.78711 3.44644 4.68506C2.85198 5.57617 2.91047 6.47461 2.94534 7.01172C2.94655 7.03165 2.94809 7.05168 2.94963 7.07153C2.94028 7.08496 2.93184 7.09473 2.92285 7.10938C2.57754 7.56348 2 8.3252 2 9.375C2 10.4248 2.57758 11.186 2.92289 11.6411C2.93128 11.6504 2.94028 11.665 2.94872 11.6748C2.94759 11.6943 2.9459 11.7139 2.94478 11.7334C2.90991 12.2705 2.85086 13.1689 3.44531 14.0625C3.82999 14.6392 4.34796 15.002 4.81981 15.2598L2.09669 21.1533C1.91391 21.5531 1.99652 22.0068 2.31462 22.3374C2.57439 22.6065 2.95518 22.7583 3.34886 22.7583C3.43727 22.7583 3.52635 22.7509 3.61499 22.7353L6.15645 22.2941L7.36166 24.3581C7.59354 24.7559 8.05133 25 8.56311 25C8.58245 25 8.60046 24.9994 8.6198 24.9987C9.15408 24.9804 9.61243 24.7017 9.81433 24.2721L12.3818 18.75H13.2619L15.7815 24.2725C15.9836 24.702 16.4417 24.9805 16.976 24.999C16.9934 24.9561 16.9653 25 17.0328 25C17.5442 25 18.0018 24.7572 18.2335 24.3584L19.4387 22.2939L21.9802 22.7351C22.0688 22.7507 22.1579 22.7582 22.2463 22.7582C22.6404 22.7582 23.0207 22.6064 23.2806 22.3372C23.5986 22.0069 23.6813 21.5531 23.4985 21.1532L20.8177 15.2344ZM19.811 12.8906C19.4696 13.4028 18.5434 13.5322 18.0648 13.9482C17.5863 14.3638 17.4366 15.1675 16.8466 15.4639C16.6264 15.5745 16.3641 15.6021 16.0868 15.6021C15.8104 15.6021 15.5194 15.5746 15.241 15.5746C15.0617 15.5746 14.8876 15.586 14.7261 15.6235C14.0858 15.7715 13.4953 16.4062 12.7979 16.4062C12.1017 16.4062 11.5101 15.7739 10.8678 15.6245C10.7058 15.5859 10.5315 15.5322 10.3515 15.5322C10.0734 15.5322 9.78295 15.5596 9.50681 15.5596C9.22944 15.5596 8.9668 15.5319 8.74645 15.4212C8.15819 15.166 8.00634 14.3652 7.52886 13.9502C7.05027 13.5352 6.12456 13.4033 5.78319 12.8906C5.44688 12.3877 5.777 11.626 5.59985 11.0498C5.42832 10.4932 4.69945 9.98047 4.69945 9.375C4.69945 8.77051 5.42832 8.25684 5.59985 7.69922C5.77723 7.12256 5.44738 6.36279 5.78415 5.85791C6.12569 5.34668 7.05139 5.21484 7.53055 4.80029C8.00915 4.38486 8.15875 3.58105 8.7487 3.28467C8.96893 3.17402 9.23124 3.14639 9.5085 3.14639C9.78497 3.14639 10.076 3.17395 10.3543 3.17395C10.5336 3.17395 10.7077 3.16251 10.8693 3.12502C11.5101 2.97607 12.1006 2.34375 12.7979 2.34375C13.4948 2.34375 14.0858 2.97607 14.7281 3.12549C14.8899 3.16306 15.0642 3.17451 15.2438 3.17451C15.5219 3.17451 15.8124 3.14714 16.0885 3.14714C16.3659 3.14714 16.6286 3.1748 16.8489 3.28552C17.4388 3.58181 17.5879 4.38611 18.067 4.80164C18.5455 5.21726 19.4713 5.34705 19.8127 5.85925C20.1491 6.36414 19.8192 7.1239 19.9966 7.70056C20.171 8.25684 20.8964 8.76953 20.8964 9.375C20.8964 9.97949 20.1681 10.4932 19.996 11.0508C19.8166 11.626 20.1485 12.3877 19.811 12.8906ZM12.7979 6.25C10.8127 6.25 9.19862 7.64648 9.19862 9.375C9.19862 11.1001 10.8099 12.5 12.7979 12.5C14.786 12.5 16.3973 11.1001 16.3973 9.375C16.3973 7.64648 14.7832 6.25 12.7979 6.25Z" fill="#CB152F"/>
</svg>
