<svg width="34" height="24" viewBox="0 0 34 24" fill="none" xmlns="http://www.w3.org/2000/svg">
<path d="M33.2895 3.75519C32.8985 2.27706 31.7464 1.11294 30.2836 0.717875C27.6321 0 17 0 17 0C17 0 6.36796 0 3.71642 0.717875C2.2536 1.113 1.10149 2.27706 0.710463 3.75519C0 6.43438 0 12.0243 0 12.0243C0 12.0243 0 17.6141 0.710463 20.2933C1.10149 21.7714 2.2536 22.8871 3.71642 23.2821C6.36796 24 17 24 17 24C17 24 27.632 24 30.2836 23.2821C31.7464 22.8871 32.8985 21.7714 33.2895 20.2933C34 17.6141 34 12.0243 34 12.0243C34 12.0243 34 6.43438 33.2895 3.75519ZM13.5227 17.0994V6.94906L22.409 12.0244L13.5227 17.0994Z" fill="#CB152F"/>
</svg>
